<svg width="100%" height="100%" id="svg" viewBox="0 0 1440 690" xmlns="http://www.w3.org/2000/svg" class="transition duration-300 ease-in-out delay-150"><path d="M 0,700 L 0,405 C 60.20599334073252,389.2082624244666 120.41198668146504,373.4165248489333 179,373 C 237.58801331853496,372.5834751510667 294.5580466148724,387.54216302873346 337,353 C 379.4419533851276,318.45783697126654 407.35582685904546,234.41482303613267 462,202 C 516.6441731409545,169.58517696386733 598.0186459489455,188.79854482673574 651,182 C 703.9813540510545,175.20145517326426 728.5695893451721,142.3909976569244 776,125 C 823.4304106548279,107.6090023430756 893.7029966703661,105.63746454556667 955,77 C 1016.2970033296339,48.362535454433335 1068.6184239733632,-6.94085583919103 1122,-32 C 1175.3815760266368,-57.05914416080897 1229.823307436182,-51.87404118880255 1283,-74 C 1336.176692563818,-96.12595881119745 1388.088346281909,-145.56297940559872 1440,-195 L 1440,700 L 0,700 Z" stroke="none" stroke-width="0" fill="#9900ef" fill-opacity="0.265" class="transition-all duration-300 ease-in-out delay-150 path-0"></path><path d="M 0,700 L 0,545 C 45.80056727093351,538.6557405352078 91.60113454186703,532.3114810704155 138,512 C 184.39886545813297,491.6885189295844 231.39602910346537,457.40981625354544 297,448 C 362.60397089653463,438.59018374645456 446.8147490442717,454.04925391540263 504,432 C 561.1852509557283,409.95074608459737 591.3449747194476,350.393168084844 635,300 C 678.6550252805524,249.60683191515602 735.8053520779382,208.37807374522134 797,196 C 858.1946479220618,183.62192625477866 923.4336169687999,200.0945369342706 985,193 C 1046.5663830312,185.9054630657294 1104.4601800468618,155.2437785176964 1144,111 C 1183.5398199531382,66.75622148230362 1204.7256628437538,8.930348994943891 1251,-21 C 1297.2743371562462,-50.93034899494389 1368.6371685781232,-52.96517449747195 1440,-55 L 1440,700 L 0,700 Z" stroke="none" stroke-width="0" fill="#9900ef" fill-opacity="0.4" class="transition-all duration-300 ease-in-out delay-150 path-1"></path><path d="M 0,700 L 0,685 C 57.081810334196575,704.0675545689974 114.16362066839315,723.1351091379947 172,710 C 229.83637933160685,696.8648908620053 288.427327660624,651.5271180170182 336,606 C 383.572672339376,560.4728819829818 420.12706868911084,514.7564187939327 465,496 C 509.87293131088916,477.24358120606735 563.0643975829325,485.4472068072513 630,458 C 696.9356024170675,430.5527931927487 777.6153409791591,367.4547539770625 829,333 C 880.3846590208409,298.5452460229375 902.4742385004315,292.7337772844987 947,275 C 991.5257614995685,257.2662227155013 1058.4877050191144,227.61013688494268 1114,199 C 1169.5122949808856,170.38986311505732 1213.5749414231102,142.82567517573068 1266,124 C 1318.4250585768898,105.17432482426933 1379.2125292884448,95.08716241213466 1440,85 L 1440,700 L 0,700 Z" stroke="none" stroke-width="0" fill="#9900ef" fill-opacity="0.53" class="transition-all duration-300 ease-in-out delay-150 path-2"></path><path d="M 0,700 L 0,825 C 43.03366629670735,818.6909113330867 86.0673325934147,812.3818226661733 138,787 C 189.9326674065853,761.6181773338267 250.76433592304846,717.1636206683932 304,700 C 357.23566407695154,682.8363793316068 402.87532371439147,692.963694660254 466,683 C 529.1246762856085,673.036305339746 609.7343692193858,642.9816006905907 663,611 C 716.2656307806142,579.0183993094093 742.1871994080652,545.1099025773833 792,522 C 841.8128005919348,498.89009742261675 915.5168331483536,486.5787889998767 969,469 C 1022.4831668516464,451.4212110001233 1055.74546799852,428.57494142311015 1105,392 C 1154.25453200148,355.42505857688985 1219.5012948575657,305.12144530768285 1278,275 C 1336.4987051424343,244.87855469231718 1388.249352571217,234.93927734615858 1440,225 L 1440,700 L 0,700 Z" stroke="none" stroke-width="0" fill="#9900ef" fill-opacity="1" class="transition-all duration-300 ease-in-out delay-150 path-3"></path></svg>
